<svg xmlns="http://www.w3.org/2000/svg" xmlns:xlink="http://www.w3.org/1999/xlink" width="0" height="0" style="position:absolute">
	
		<symbol id="basket" viewBox="0 0 30 25">
			<path d="M29.01 8.327a2.035 2.035 0 0 0-1.601-.768h-5.671L18.663.518a.863.863 0 1 0-1.581.69l2.773 6.351H9.592l2.773-6.35a.863.863 0 0 0-1.581-.691L7.709 7.559H2.038c-.629 0-1.212.28-1.6.768a1.986 1.986 0 0 0-.387 1.69l3.028 13.227a2.021 2.021 0 0 0 1.987 1.57h19.315c.958 0 1.775-.646 1.987-1.57l3.028-13.228a1.986 1.986 0 0 0-.386-1.69zm-4.63 14.76H5.067a.309.309 0 0 1-.305-.228L1.733 9.631a.263.263 0 0 1 .053-.229.313.313 0 0 1 .252-.117h4.917l-.226.517a.863.863 0 0 0 1.581.69l.528-1.207h11.77l.528 1.208a.863.863 0 1 0 1.582-.69l-.226-.518h4.917c.137 0 .216.073.251.117a.263.263 0 0 1 .054.23l-3.028 13.227a.309.309 0 0 1-.305.229z"></path>
		</symbol>
	
		<symbol id="facebook" viewBox="0 0 17 27">
			<path d="M15.25 7.172c.414 0 .75-.328.75-.732V1.732A.741.741 0 0 0 15.25 1H9.625c-2.63 0-4.768 2.088-4.768 4.655v4.76H1.75a.741.741 0 0 0-.75.732v4.707c0 .404.336.732.75.732h3.107v8.682c0 .404.336.732.75.732h4.821c.415 0 .75-.328.75-.732v-8.682h3.107a.746.746 0 0 0 .736-.589l.964-4.707a.719.719 0 0 0-.155-.608.757.757 0 0 0-.58-.268h-4.071V7.172h4.07zm-4.822 4.707h3.907l-.665 3.242h-3.242a.741.741 0 0 0-.75.732v8.682h-3.32v-8.681a.741.741 0 0 0-.75-.733H2.5V11.88h3.107c.415 0 .75-.328.75-.732V5.654c0-1.76 1.466-3.19 3.268-3.19H14.5v3.242h-4.072a.741.741 0 0 0-.75.733v4.706c0 .405.336.733.75.733z"></path><path d="M16.15 6.44c0 .49-.406.882-.9.882h-3.921v2.942h3.92c.27 0 .524.118.696.322l-.115.096c.143.17.2.393.155.608l.165-4.85zm0 0V1.732a.891.891 0 0 0-.9-.882H9.625c-2.709 0-4.918 2.152-4.918 4.805v4.61H1.75c-.494 0-.9.39-.9.881v4.707c0 .491.406.883.9.883h2.957v8.532c0 .49.406.882.9.882h4.821c.494 0 .9-.392.9-.882v-8.532h2.958a.896.896 0 0 0 .882-.709l.964-4.707.018-4.88zm-5.721 5.589h3.722l-.603 2.942h-3.12c-.493 0-.9.392-.9.883v8.531h-3.02v-8.532a.891.891 0 0 0-.9-.882H2.65V12.03h2.957c.494 0 .9-.392.9-.883V5.655c0-1.673 1.396-3.04 3.118-3.04h4.725v2.942h-3.921c-.494 0-.9.392-.9.883v4.706c0 .491.406.883.9.883z"></path>
		</symbol>
	
		<symbol id="favorites" viewBox="0 0 28 25">
			<path d="M14 25c-.399 0-.783-.145-1.082-.408a325.333 325.333 0 0 0-3.184-2.748l-.005-.005c-2.821-2.412-5.257-4.496-6.952-6.548C.882 12.997 0 10.821 0 8.445c0-2.309.789-4.44 2.221-5.998C3.671.869 5.66 0 7.822 0c1.616 0 3.096.513 4.4 1.524A9.02 9.02 0 0 1 14 3.388a9.021 9.021 0 0 1 1.779-1.864C17.082.513 18.562 0 20.179 0c2.162 0 4.15.869 5.6 2.447C27.211 4.006 28 6.136 28 8.445c0 2.376-.882 4.552-2.777 6.846-1.695 2.052-4.13 4.136-6.951 6.548-.964.824-2.056 1.758-3.19 2.753A1.64 1.64 0 0 1 14 25zM7.822 1.646c-1.699 0-3.26.68-4.395 1.916C2.275 4.817 1.64 6.551 1.64 8.445c0 1.999.74 3.786 2.4 5.796 1.604 1.942 3.99 3.983 6.752 6.346l.006.004c.965.826 2.06 1.762 3.2 2.762a383.634 383.634 0 0 1 3.21-2.767c2.763-2.362 5.148-4.403 6.752-6.345 1.66-2.01 2.4-3.797 2.4-5.796 0-1.894-.635-3.628-1.787-4.883a5.897 5.897 0 0 0-4.395-1.916c-1.244 0-2.387.397-3.396 1.18-.9.698-1.525 1.58-1.893 2.198A1.026 1.026 0 0 1 14 5.53c-.368 0-.7-.19-.89-.507-.366-.618-.993-1.5-1.892-2.198-1.009-.783-2.152-1.18-3.396-1.18z"></path>
		</symbol>
	
		<symbol id="google" viewBox="0 0 25 17">
			<path d="M2.344 0h20.312C23.95 0 25 .953 25 2.125v12.75C25 16.047 23.949 17 22.656 17H2.344C1.05 17 0 16.047 0 14.875V2.125C0 .953 1.051 0 2.344 0zm0 1.417a.846.846 0 0 0-.3.054L12.5 9.689l10.456-8.216a.847.847 0 0 0-.3-.055H2.344zm0 14.166h20.312c.431 0 .782-.317.782-.708V2.968L13.011 11.16a.83.83 0 0 1-.512.173.83.83 0 0 1-.512-.173L1.562 2.968v11.907c0 .39.35.708.782.708z"></path><path d="M23.637 2.557l-.323.254-10.425 8.192 10.748-8.446zm0 0v.411m0-.411v.411m0 0v11.907c0 .52-.458.908-.98.908H2.343c-.523 0-.981-.389-.982-.908V2.557m22.275.411L1.363 2.557m0 0l.324.254m-.324-.254l.324.254m0 0l10.425 8.192a.63.63 0 0 0 .389.13.63.63 0 0 0 .388-.13L1.686 2.811zm.235-1.182l-.279-.22.332-.125c.113-.043.238-.067.37-.067h20.312c.132 0 .257.024.37.067l.332.126-.279.219-10.455 8.216-.124.097-.124-.097L1.921 1.629zM22.656.2H2.344C1.143.2.2 1.082.2 2.125v12.75c0 1.043.943 1.925 2.144 1.925h20.312c1.201 0 2.144-.882 2.144-1.925V2.125C24.8 1.082 23.857.2 22.656.2z"></path>
		</symbol>
	
		<symbol id="instagram" viewBox="0 0 23 24">
			<g clip-path="url(#a)"><path d="M16.874-.1H6.226C2.734-.1-.1 2.863-.1 6.497v11.007c0 3.633 2.834 6.596 6.326 6.596h10.548c3.492 0 6.326-2.963 6.326-6.596V6.497c0-3.6-2.78-6.54-6.226-6.596zm4.678 17.604c0 2.755-2.148 4.989-4.778 4.989H6.226c-2.63 0-4.778-2.234-4.778-4.99V6.498c0-2.756 2.148-4.99 4.778-4.99h10.548c2.63 0 4.778 2.234 4.778 4.99v11.007z"></path><path d="M11.5 5.338C7.973 5.338 5.11 8.33 5.11 12s2.863 6.662 6.39 6.662c3.527 0 6.389-2.992 6.389-6.662s-2.862-6.662-6.39-6.662zm0 11.717c-2.665 0-4.84-2.263-4.84-5.055 0-2.791 2.175-5.055 4.84-5.055S16.34 9.209 16.34 12c0 2.792-2.175 5.055-4.84 5.055zM17.94 3.007c-1.085 0-1.959.919-1.959 2.04 0 1.12.874 2.039 1.958 2.039s1.959-.92 1.959-2.04-.875-2.039-1.959-2.039zm0 2.471a.422.422 0 0 1-.41-.432c0-.242.187-.432.41-.432.221 0 .41.19.41.432a.422.422 0 0 1-.41.432z"></path></g><defs><clipPath id="a"><path d="M0 0h23v24H0z"></path></clipPath></defs>
		</symbol>
	
		<symbol id="logo" viewBox="0 0 122 104">
			<path d="M60.5 0L29 18.19v36.378l31.5 18.19L92 54.568V18.19L60.5 0zm24.537 50.59L60.453 64.752 35.916 50.59V22.168L60.5 7.958l24.584 14.21V50.59h-.047z"></path><path d="M79.163 25.437V47.32l-12.931 7.626V42.868H54.769v12.08L41.837 47.32V25.437l12.931-7.627v12.411h11.464v-12.41l12.931 7.626zM15.311 103.689h-3.653v-7.15H3.614v7.15H0V86.707h3.614v6.684h8.006v-6.684h3.653v16.982h.038zM35.13 103.689H23.122V86.707H35.13v3.186h-8.394v3.575h8.239v3.187h-8.239v3.847h8.394v3.187zM50.637 104c-2.565 0-4.741-.816-6.451-2.448-1.71-1.633-2.604-3.731-2.604-6.335 0-2.603.855-4.702 2.604-6.334 1.71-1.632 3.886-2.448 6.45-2.448 3.187 0 5.558 1.399 7.112 4.158l-3.109 1.515a5.12 5.12 0 0 0-1.632-1.787 4.33 4.33 0 0 0-2.37-.7c-1.555 0-2.837.544-3.809 1.594-1.01 1.049-1.515 2.37-1.515 4.002 0 1.632.505 2.954 1.515 4.003 1.01 1.049 2.293 1.593 3.809 1.593.855 0 1.632-.233 2.37-.699.739-.467 1.283-1.05 1.632-1.788l3.11 1.516C56.115 102.6 53.745 104 50.636 104zM71.932 103.689h-3.653V89.893h-4.974v-3.186h13.562v3.186h-4.935v13.796zM91.713 104c-2.565 0-4.703-.816-6.373-2.487-1.672-1.671-2.526-3.77-2.526-6.296 0-2.565.854-4.663 2.526-6.295 1.67-1.671 3.808-2.487 6.373-2.487 2.565 0 4.702.816 6.373 2.487 1.671 1.632 2.526 3.77 2.526 6.334 0 2.565-.855 4.663-2.526 6.334-1.671 1.594-3.808 2.41-6.373 2.41zm-3.731-4.78c.933 1.049 2.176 1.593 3.73 1.593 1.555 0 2.799-.544 3.731-1.593.933-1.05 1.438-2.37 1.438-4.003 0-1.632-.466-2.953-1.438-4.002-.932-1.05-2.215-1.594-3.73-1.594-1.555 0-2.798.544-3.731 1.594-.933 1.049-1.399 2.37-1.399 4.002 0 1.594.466 2.915 1.399 4.003zM121.364 103.689h-4.158l-3.342-6.024h-2.642v6.024h-3.615V86.707h7.967c1.749 0 3.148.505 4.158 1.515 1.011 1.01 1.555 2.332 1.555 3.964 0 1.399-.35 2.526-1.089 3.38-.738.856-1.593 1.4-2.642 1.672l3.808 6.451zm-6.334-9.21c.738 0 1.36-.195 1.826-.622.467-.427.7-.972.7-1.671 0-.7-.233-1.244-.7-1.671-.466-.427-1.088-.622-1.826-.622h-3.808v4.586h3.808z"></path>
		</symbol>
	
		<symbol id="logo_galaxy_it" viewBox="0 0 92 36">
			<g opacity=".25"><path fill-rule="evenodd" clip-rule="evenodd" d="M64.57 26.743c.213-.067.147-.038.1-.02-.052.02-.095.039-.133.053-.037.014-.07.028-.17.07-.099.038-.26.105-1.252.502-.993.401-2.812 1.134-4.91 1.762-2.094.629-4.467 1.154-6.853 1.57a76.19 76.19 0 0 1-7.43.94 92.679 92.679 0 0 1-8.62.274 94.823 94.823 0 0 1-9.178-.577 71.473 71.473 0 0 1-8.27-1.432c-2.562-.6-4.94-1.313-7.1-2.15-2.164-.837-4.116-1.796-5.732-2.907-1.616-1.105-2.897-2.363-3.729-3.492C.466 20.202.088 19.19.013 18.084c-.072-1.11.16-2.31.831-3.535.671-1.219 1.782-2.457 3.55-3.72C6.155 9.564 8.57 8.274 11.16 7.253c2.595-1.02 5.369-1.767 6.754-2.145 1.384-.374 1.384-.374 1.351-.36-.033.015-.104.043-.983.402-.884.355-2.58 1.045-4.017 1.716-1.432.676-2.609 1.337-3.733 2.14-1.125.804-2.193 1.744-2.95 2.643-.756.897-1.195 1.753-1.417 2.736a6.886 6.886 0 0 0 .042 3.148c.26 1.049.79 2.022 1.744 3.071.955 1.045 2.34 2.16 4.022 3.181 1.678 1.02 3.653 1.943 5.718 2.684 2.07.742 4.235 1.3 6.584 1.787 2.354.491 4.891.907 7.888 1.215 2.991.302 6.432.496 9.93.477a85.01 85.01 0 0 0 10.321-.662c3.275-.42 6.276-1.03 8.063-1.422 1.786-.397 2.353-.577 2.878-.742a99.774 99.774 0 0 1 1.214-.378z"></path><path fill-rule="evenodd" clip-rule="evenodd" d="M10.452 5.693c-.231.066-.16.038-.108.019a4.38 4.38 0 0 1 .141-.057c.043-.019.085-.033.194-.08.109-.043.288-.114 1.38-.553 1.092-.44 3.1-1.253 5.411-1.943 2.316-.694 4.93-1.271 7.562-1.734A85.16 85.16 0 0 1 33.227.31c2.93-.232 6.149-.35 9.509-.298a102.1 102.1 0 0 1 10.123.633 79.76 79.76 0 0 1 9.122 1.574c2.826.667 5.444 1.456 7.83 2.377 2.383.922 4.538 1.98 6.32 3.205 1.786 1.219 3.199 2.604 4.111 3.856.917 1.248 1.333 2.363 1.413 3.582.08 1.225-.175 2.553-.912 3.895-.742 1.347-1.97 2.713-3.918 4.111-1.947 1.404-4.608 2.836-7.472 3.966-2.859 1.13-5.917 1.956-7.448 2.372-1.526.411-1.526.411-1.465.388.066-.024.194-.076 1.163-.473.973-.392 2.793-1.13 4.352-1.871 1.56-.738 2.86-1.48 4.098-2.368 1.238-.893 2.42-1.928 3.256-2.92.832-.993 1.319-1.934 1.56-3.02a7.622 7.622 0 0 0-.043-3.47c-.293-1.158-.87-2.23-1.923-3.388-1.054-1.154-2.586-2.382-4.438-3.507-1.853-1.125-4.027-2.146-6.31-2.963-2.282-.818-4.664-1.432-7.259-1.971A83.59 83.59 0 0 0 46.2 2.682a105.246 105.246 0 0 0-10.955-.529c-3.856.019-7.77.27-11.385.733-3.61.463-6.924 1.134-8.894 1.569-1.966.434-2.595.633-3.172.817-.58.18-1.11.35-1.342.42z"></path><path fill-rule="evenodd" clip-rule="evenodd" d="M9.474 29.465c-.264-.08-.184-.047-.123-.023.067.028.119.047.166.066l.217.09c.128.051.331.132 1.584.637 1.257.506 3.563 1.433 6.219 2.231 2.656.794 5.657 1.456 8.677 1.985 3.02.534 6.05.931 9.414 1.196 3.36.264 7.061.397 10.913.34a117.72 117.72 0 0 0 11.621-.728 91.268 91.268 0 0 0 10.478-1.81c3.242-.76 6.248-1.668 8.99-2.727 2.736-1.058 5.212-2.273 7.258-3.677 2.047-1.403 3.668-2.991 4.722-4.428 1.049-1.437 1.526-2.718 1.62-4.116.09-1.404-.198-2.926-1.053-4.471-.85-1.546-2.26-3.115-4.49-4.717-2.235-1.602-5.293-3.233-8.564-4.49-3.27-1.257-6.758-2.136-8.559-2.594-1.805-.459-1.928-.492-1.999-.51a.653.653 0 0 0-.099-.024c-.01-.005-.01-.005 1.163.434 1.176.435 3.525 1.31 5.449 2.165 1.919.855 3.407 1.697 4.83 2.713 1.422 1.016 2.779 2.207 3.733 3.346.96 1.134 1.518 2.216 1.796 3.464a8.826 8.826 0 0 1-.052 3.989c-.33 1.323-.997 2.561-2.207 3.885-1.21 1.323-2.963 2.736-5.094 4.031-2.127 1.29-4.627 2.462-7.245 3.398-2.619.94-5.36 1.645-8.337 2.264a96.388 96.388 0 0 1-9.982 1.536c-3.79.387-8.152.628-12.58.605-4.429-.02-8.919-.307-13.068-.837-4.15-.529-7.95-1.304-10.213-1.805-2.26-.496-2.978-.723-3.644-.936-.666-.208-1.276-.401-1.54-.482z"></path><path d="M20.934 19.612c-.827.727-1.772 1.091-2.83 1.091-1.135 0-2.104-.368-2.902-1.1-.8-.738-1.196-1.631-1.196-2.671 0-1.04.397-1.933 1.196-2.67.798-.738 1.767-1.106 2.901-1.106 1.059 0 2.06.397 3.01 1.195l-.779.648c-.714-.581-1.456-.874-2.23-.874-.842 0-1.56.274-2.156.817-.595.553-.893 1.215-.893 1.99 0 .775.298 1.441.893 1.99.596.548 1.314.822 2.155.822.719 0 1.319-.175 1.792-.53v-2.23h1.04v2.628zM25.878 17.055l-.685-1.73-.686 1.73h1.371zm-.406-3.819l2.92 7.387h-1.106l-1.03-2.613H24.13l-1.03 2.613h-1.106l2.916-7.387h.563zM29.395 20.623v-7.387h1.035v6.428h2.868v.96h-3.904zM37.887 17.055l-.685-1.73-.686 1.73h1.37zm-.407-3.819l2.921 7.387h-1.106l-1.03-2.613h-2.127l-1.03 2.613h-1.106l2.916-7.387h.562zM40.902 20.623l2.52-4.031-2.099-3.356h1.19l1.504 2.406 1.517-2.406h1.19l-2.112 3.356 2.533 4.031h-1.19l-1.938-3.076-1.924 3.076h-1.19zM50.426 17.66l-2.77-4.424h1.191l2.094 3.346 2.103-3.346h1.2l-2.779 4.424v2.963h-1.04V17.66zM59.934 13.236v7.387h-1.04v-7.387h1.04zM63.956 14.191v6.432h-1.044v-6.432H61.04v-.955h4.783v.955h-1.867z"></path></g>
		</symbol>
	
		<symbol id="search" viewBox="0 0 25 25">
			<path d="M11.01 0C4.938 0 0 4.939 0 11.01c0 6.07 4.939 11.009 11.01 11.009 6.07 0 11.009-4.939 11.009-11.01C22.019 4.94 17.08 0 11.009 0zm0 19.986c-4.95 0-8.977-4.027-8.977-8.977s4.027-8.976 8.976-8.976c4.95 0 8.977 4.027 8.977 8.976 0 4.95-4.027 8.977-8.977 8.977z"></path><path d="M24.702 23.265l-5.827-5.826a1.016 1.016 0 1 0-1.437 1.437l5.827 5.826a1.012 1.012 0 0 0 1.437 0 1.016 1.016 0 0 0 0-1.437z"></path>
		</symbol>
	
		<symbol id="telegram" viewBox="0 0 48 42">
			<path d="M18.968 27.48L18.2 38.821c1.099 0 1.575-.496 2.145-1.09l5.152-5.17 10.675 8.208c1.957 1.145 3.337.542 3.865-1.891l7.007-34.475.001-.002C47.666 1.364 46 .175 44.091.921L2.905 17.478c-2.81 1.145-2.768 2.79-.477 3.536l10.53 3.439 24.457-16.07c1.151-.8 2.198-.357 1.337.443L18.968 27.48z"></path>
		</symbol>
	
		<symbol id="telephone" viewBox="0 0 24 24">
			<path d="M4.863 15.954a25.545 25.545 0 0 0 8.502 6.634c1.243.586 2.905 1.283 4.757 1.402.115.005.225.01.34.01 1.242 0 2.24-.428 3.055-1.308.005-.005.015-.015.02-.025.289-.348.619-.661.963-.994.235-.224.474-.458.704-.697 1.063-1.104 1.063-2.506-.01-3.575l-3-2.99c-.51-.526-1.118-.805-1.758-.805-.639 0-1.253.279-1.777.801l-1.787 1.78c-.165-.094-.334-.179-.494-.258a6.14 6.14 0 0 1-.549-.299c-1.627-1.03-3.105-2.372-4.518-4.098-.714-.9-1.193-1.655-1.527-2.426.469-.423.908-.866 1.333-1.298.15-.154.304-.309.459-.463.539-.537.829-1.159.829-1.79 0-.632-.285-1.253-.83-1.79L8.089 2.283c-.174-.174-.34-.344-.509-.518-.33-.338-.674-.686-1.013-1C6.052.265 5.448 0 4.809 0 4.175 0 3.566.264 3.03.77L1.164 2.63A3.815 3.815 0 0 0 .021 5.078c-.095 1.19.125 2.452.694 3.979.874 2.362 2.192 4.555 4.148 6.898zM1.24 5.182c.06-.661.315-1.214.794-1.69l1.857-1.85c.29-.28.61-.424.919-.424.304 0 .614.145.898.433.335.308.65.632.989.975l.519.527 1.487 1.482c.31.308.47.622.47.93 0 .308-.16.621-.47.93l-.464.467c-.464.468-.899.91-1.378 1.333l-.025.025c-.414.413-.35.806-.25 1.104l.016.04c.384.92.918 1.795 1.752 2.84 1.497 1.84 3.075 3.267 4.812 4.366.215.139.444.248.659.358.2.1.384.194.55.298l.054.03c.165.084.324.124.484.124.4 0 .66-.253.744-.338l1.867-1.86c.29-.288.604-.442.913-.442.38 0 .69.233.884.442l3.01 2.994c.6.597.594 1.243-.015 1.875-.21.224-.43.438-.664.661-.35.338-.713.687-1.043 1.08-.574.616-1.258.905-2.142.905-.084 0-.174-.006-.26-.01-1.636-.105-3.159-.741-4.302-1.284a24.267 24.267 0 0 1-8.092-6.315c-1.862-2.233-3.115-4.312-3.944-6.54-.514-1.367-.709-2.466-.629-3.466z"></path>
		</symbol>
	
		<symbol id="user_icon" viewBox="0 0 22 25">
			<path d="M10.718 12.043c1.654 0 3.087-.594 4.257-1.764 1.17-1.171 1.764-2.603 1.764-4.258 0-1.654-.593-3.086-1.764-4.257C13.805.594 12.372 0 10.718 0 9.063 0 7.63.593 6.46 1.764 5.29 2.934 4.696 4.367 4.696 6.02c0 1.655.594 3.087 1.764 4.258 1.171 1.17 2.604 1.764 4.258 1.764zM7.496 2.8c.899-.898 1.952-1.335 3.222-1.335s2.323.437 3.221 1.335c.899.898 1.335 1.952 1.335 3.221 0 1.27-.436 2.323-1.335 3.222-.898.898-1.952 1.335-3.221 1.335-1.27 0-2.323-.437-3.222-1.335-.898-.899-1.335-1.952-1.335-3.222 0-1.269.437-2.323 1.335-3.221zM21.253 19.224a14.887 14.887 0 0 0-.202-1.58 12.45 12.45 0 0 0-.389-1.588 7.846 7.846 0 0 0-.653-1.481 5.58 5.58 0 0 0-.984-1.284 4.341 4.341 0 0 0-1.415-.888 4.889 4.889 0 0 0-1.805-.327c-.255 0-.502.105-.979.415-.293.191-.636.413-1.02.657-.327.21-.77.405-1.318.582a5.239 5.239 0 0 1-1.614.26 5.242 5.242 0 0 1-1.613-.26c-.547-.177-.991-.373-1.318-.581-.38-.243-.723-.464-1.02-.658-.477-.31-.724-.415-.979-.415-.65 0-1.257.11-1.805.327a4.337 4.337 0 0 0-1.415.889 5.583 5.583 0 0 0-.984 1.283 7.856 7.856 0 0 0-.653 1.481A12.474 12.474 0 0 0 .7 17.644c-.1.56-.169 1.092-.203 1.58-.033.478-.05.975-.05 1.477 0 1.305.415 2.361 1.233 3.14.808.77 1.877 1.159 3.177 1.159h12.038c1.3 0 2.369-.39 3.177-1.159.818-.778 1.233-1.835 1.233-3.14 0-.504-.017-1.001-.05-1.477zm-2.192 3.556c-.534.508-1.243.755-2.167.755H4.856c-.924 0-1.633-.247-2.167-.755-.523-.498-.778-1.179-.778-2.08 0-.468.016-.93.047-1.374.03-.436.091-.915.183-1.423.09-.502.205-.974.341-1.4a6.4 6.4 0 0 1 .532-1.205 4.14 4.14 0 0 1 .723-.948c.251-.24.568-.437.941-.585a3.37 3.37 0 0 1 1.154-.223c.051.028.143.08.29.176.302.197.649.42 1.033.666.432.275.99.524 1.655.74.681.22 1.375.331 2.064.331.69 0 1.384-.111 2.064-.331.667-.216 1.224-.465 1.657-.74.393-.252.73-.47 1.031-.666.149-.096.24-.148.291-.175.421.01.81.086 1.154.222.373.148.69.345.941.585.269.257.512.576.723.948.222.39.401.796.532 1.205.137.427.252.898.342 1.4.091.51.153.988.183 1.423.031.442.047.905.047 1.375 0 .9-.255 1.58-.778 2.079z" fill="#0F0F0F"></path>
		</symbol>
	
		<symbol id="viber" viewBox="0 0 53 56">
			<path d="M46.874 5.425C45.492 4.152 39.899.094 27.43.04c0 0-14.699-.88-21.858 5.69C1.59 9.713.186 15.556.034 22.79c-.153 7.236-.338 20.793 12.73 24.47h.01l-.01 5.614s-.087 2.274 1.414 2.731c1.806.566 2.873-1.164 4.603-3.024.946-1.023 2.252-2.525 3.242-3.667 8.944.75 15.809-.968 16.592-1.219 1.807-.587 12.023-1.893 13.677-15.45 1.72-13.992-.827-22.827-5.418-26.82zm1.512 25.797c-1.404 11.316-9.684 12.034-11.207 12.524-.653.206-6.691 1.708-14.275 1.218 0 0-5.657 6.822-7.42 8.596-.577.576-1.208.522-1.197-.62 0-.751.043-9.325.043-9.325-.01 0-.01 0 0 0C3.255 40.547 3.908 29.003 4.027 22.965c.12-6.04 1.262-10.99 4.635-14.32 6.06-5.494 18.54-4.678 18.54-4.678 10.543.044 15.591 3.22 16.766 4.287 3.885 3.33 5.865 11.294 4.418 22.968zm-15.124-8.79c.044.935-1.36 1-1.403.064-.12-2.393-1.24-3.557-3.547-3.688-.936-.054-.849-1.458.076-1.404 3.035.164 4.722 1.904 4.874 5.027zm2.209 1.229c.109-4.614-2.774-8.226-8.247-8.629-.925-.065-.827-1.468.098-1.403 6.31.457 9.672 4.798 9.553 10.064-.011.936-1.426.892-1.404-.032zm5.114 1.458c.01.935-1.404.946-1.404.01-.065-8.867-5.973-13.698-13.143-13.752-.925-.011-.925-1.404 0-1.404 8.019.055 14.47 5.593 14.547 15.146zm-1.23 10.673v.022c-1.175 2.067-3.373 4.352-5.636 3.623l-.022-.033c-2.295-.642-7.703-3.427-11.12-6.147a28.44 28.44 0 0 1-4.612-4.613 35.304 35.304 0 0 1-3.352-5.07c-2.317-4.19-2.829-6.06-2.829-6.06-.729-2.264 1.545-4.462 3.624-5.637h.021c1.001-.522 1.959-.348 2.6.425 0 0 1.35 1.61 1.927 2.404.544.74 1.273 1.926 1.654 2.59.663 1.186.25 2.393-.403 2.894L19.9 21.234c-.663.533-.576 1.523-.576 1.523s1.936 7.323 9.172 9.173c0 0 .99.087 1.523-.577l1.044-1.306c.501-.652 1.709-1.066 2.895-.402 1.599.903 3.634 2.306 4.983 3.58.761.62.935 1.566.413 2.567z"></path>
		</symbol>
	
		<symbol id="whatsapp" viewBox="0 0 24 24">
			<path d="M20.405 3.487A11.804 11.804 0 0 0 11.995 0C5.438 0 .102 5.336.102 11.893c0 2.095.546 4.14 1.585 5.946L0 24l6.305-1.655a11.856 11.856 0 0 0 5.684 1.446h.006C18.546 23.791 24 18.455 24 11.898c0-3.177-1.35-6.16-3.595-8.41zm-8.41 18.3a9.867 9.867 0 0 1-5.036-1.376l-.359-.215-3.74.98.997-3.647-.236-.375a9.852 9.852 0 0 1-1.51-5.261c0-5.448 4.435-9.884 9.889-9.884a9.797 9.797 0 0 1 6.986 2.898c1.864 1.87 3.01 4.35 3.005 6.991 0 5.454-4.548 9.89-9.996 9.89zm5.421-7.403c-.295-.15-1.757-.868-2.03-.964-.273-.102-.472-.15-.67.15-.198.3-.766.964-.943 1.168-.171.198-.348.225-.643.075-1.746-.874-2.893-1.56-4.044-3.536-.306-.525.305-.488.873-1.623.096-.199.048-.37-.027-.52-.075-.15-.67-1.613-.916-2.207-.241-.579-.487-.498-.67-.51-.171-.01-.37-.01-.567-.01a1.1 1.1 0 0 0-.793.37c-.273.3-1.04 1.018-1.04 2.48 0 1.463 1.067 2.877 1.211 3.075.15.198 2.095 3.198 5.079 4.49 1.885.814 2.625.883 3.568.744.573-.086 1.757-.718 2.003-1.414.247-.697.247-1.291.172-1.415-.07-.133-.268-.208-.563-.353z"></path>
		</symbol>
	
</svg>
