<svg viewBox="0 0 53 56" fill="none" xmlns="http://www.w3.org/2000/svg">
<path d="M46.8736 5.42518C45.4918 4.15218 39.8993 0.0938201 27.4304 0.0394185C27.4304 0.0394185 12.7311 -0.841888 5.57186 5.72983C1.58966 9.71203 0.186095 15.5548 0.0337706 22.7902C-0.118554 30.0256 -0.30352 43.5825 12.7638 47.26H12.7746L12.7638 52.8743C12.7638 52.8743 12.6767 55.1483 14.1782 55.6053C15.9843 56.171 17.0506 54.4411 18.7806 52.5805C19.7272 51.5578 21.0328 50.0563 22.0229 48.9139C30.9665 49.6646 37.832 47.9455 38.6154 47.6953C40.4216 47.1077 50.6382 45.8021 52.292 32.2452C54.0111 18.2531 51.4651 9.41826 46.8736 5.42518ZM48.386 31.2224C46.9824 42.538 38.7025 43.2561 37.1792 43.7457C36.5264 43.9524 30.4878 45.4539 22.9042 44.9643C22.9042 44.9643 17.2465 51.7863 15.4838 53.5598C14.9072 54.1364 14.2761 54.082 14.287 52.9396C14.287 52.1888 14.3305 43.6151 14.3305 43.6151C14.3196 43.6151 14.3196 43.6151 14.3305 43.6151C3.25435 40.5469 3.90717 29.0029 4.02685 22.9643C4.14654 16.9257 5.28897 11.9751 8.66187 8.64576C14.7222 3.15119 27.202 3.96722 27.202 3.96722C37.745 4.01074 42.7935 7.18779 43.9685 8.25407C47.8528 11.5834 49.833 19.5478 48.386 31.2224ZM33.2623 22.4311C33.3058 23.3668 31.9023 23.4321 31.8587 22.4964C31.7391 20.1027 30.6184 18.9386 28.3117 18.808C27.376 18.7536 27.4631 17.35 28.3879 17.4044C31.4235 17.5676 33.11 19.3085 33.2623 22.4311ZM35.471 23.6606C35.5798 19.0474 32.6965 15.4351 27.2237 15.0325C26.2989 14.9672 26.3968 13.5637 27.3216 13.629C33.6322 14.0859 36.9943 18.4272 36.8746 23.6933C36.8637 24.629 35.4492 24.5854 35.471 23.6606ZM40.5848 25.1186C40.5956 26.0543 39.1812 26.0652 39.1812 25.1295C39.1159 16.262 33.2079 11.4311 26.0378 11.3767C25.1129 11.3658 25.1129 9.97316 26.0378 9.97316C34.0566 10.0276 40.5086 15.5656 40.5848 25.1186ZM39.3553 35.7922V35.8139C38.1802 37.8812 35.9824 40.1661 33.7193 39.4371L33.6975 39.4044C31.4018 38.7625 25.9942 35.9771 22.5778 33.2571C20.8152 31.8644 19.2049 30.2215 17.9646 28.6438C16.8439 27.2402 15.7123 25.5756 14.6134 23.5736C12.2959 19.3846 11.7845 17.5132 11.7845 17.5132C11.0555 15.2501 13.3295 13.0523 15.4077 11.8772H15.4294C16.4304 11.355 17.3879 11.529 18.0298 12.3015C18.0298 12.3015 19.379 13.9118 19.9557 14.7061C20.4997 15.446 21.2287 16.6319 21.6095 17.2956C22.2732 18.4816 21.8597 19.6893 21.2069 20.1898L19.9013 21.2343C19.2376 21.7674 19.3246 22.7575 19.3246 22.7575C19.3246 22.7575 21.2613 30.08 28.4967 31.9297C28.4967 31.9297 29.4868 32.0167 30.02 31.353L31.0645 30.0474C31.565 29.3945 32.7727 28.9811 33.9586 29.6448C35.558 30.5479 37.5927 31.9514 38.9418 33.2244C39.7035 33.8446 39.8775 34.7912 39.3553 35.7922Z"/>
</svg>
